<svg width="629" height="432" viewBox="0 0 629 432" fill="none" xmlns="http://www.w3.org/2000/svg">
<g filter="url(#filter0_d_5_48)">
<path d="M60.192 148.52V198.92H127.872V230.888H60.192V284.168H136.512V317H19.872V115.688H136.512V148.52H60.192Z" fill="#FF0000"/>
</g>
<g filter="url(#filter1_d_5_48)">
<path d="M268.82 285.78C270.033 285.78 270.967 286.34 271.62 287.46C272.367 288.58 272.74 290.12 272.74 292.08C272.74 295.72 271.853 298.613 270.08 300.76C265.507 306.173 260.98 310.373 256.5 313.36C252.02 316.253 247.027 317.7 241.52 317.7C233.213 317.7 226.913 315.227 222.62 310.28C218.42 305.333 215.013 298.1 212.4 288.58L207.64 271.22L174.6 312.1C172.733 314.433 170.82 315.973 168.86 316.72C166.9 317.373 164.613 317.7 162 317.7C159.387 317.7 157.193 317.233 155.42 316.3C153.74 315.273 152.9 313.873 152.9 312.1C152.9 309.767 154.253 307.107 156.96 304.12L202.32 252.46L197.84 236.08C195.693 228.427 193.313 223.06 190.7 219.98C188.087 216.9 185.1 215.36 181.74 215.36C176.793 215.36 171.007 218.953 164.38 226.14C163.26 227.353 162 227.96 160.6 227.96C159.2 227.96 157.987 227.447 156.96 226.42C156.027 225.3 155.56 223.9 155.56 222.22C155.56 219.42 156.913 216.387 159.62 213.12C163.447 208.64 167.6 205.047 172.08 202.34C176.56 199.633 181.88 198.28 188.04 198.28C194.667 198.28 200.127 200.38 204.42 204.58C208.713 208.687 212.12 215.36 214.64 224.6L217.44 234.4L241.94 204.58C243.807 202.34 245.72 200.753 247.68 199.82C249.64 198.887 252.02 198.42 254.82 198.42C257.34 198.42 259.3 198.887 260.7 199.82C262.193 200.753 262.94 202.06 262.94 203.74C262.94 205.98 261.68 208.547 259.16 211.44L222.76 253.44L230.74 282C232.14 286.947 233.4 290.727 234.52 293.34C235.64 295.953 236.993 297.913 238.58 299.22C240.26 300.433 242.453 301.04 245.16 301.04C248.053 301.04 251.04 300.013 254.12 297.96C257.293 295.907 260.933 292.5 265.04 287.74C266.16 286.433 267.42 285.78 268.82 285.78ZM363.168 291.52C364.568 290.96 365.735 290.68 366.668 290.68C368.161 290.68 369.281 291.24 370.028 292.36C370.775 293.48 371.148 294.927 371.148 296.7C371.148 299.5 370.448 301.88 369.048 303.84C367.741 305.8 365.455 307.573 362.188 309.16C356.681 311.773 349.541 313.873 340.768 315.46C331.995 316.953 323.361 317.7 314.868 317.7C303.108 317.7 293.261 316.393 285.328 313.78C277.395 311.073 271.468 307.387 267.548 302.72C263.721 298.053 261.808 292.78 261.808 286.9C261.808 278.873 264.375 272.06 269.508 266.46C274.735 260.767 282.388 256.66 292.468 254.14C286.961 252.553 282.715 249.753 279.728 245.74C276.835 241.727 275.388 237.247 275.388 232.3C275.388 225.58 277.488 219.653 281.688 214.52C285.981 209.293 291.721 205.28 298.908 202.48C306.095 199.68 313.981 198.28 322.568 198.28C334.141 198.28 342.821 200.8 348.608 205.84C354.395 210.787 357.288 217.227 357.288 225.16C357.288 230.667 356.261 235.147 354.208 238.6C352.248 241.96 349.401 243.64 345.668 243.64C343.055 243.64 341.001 243.08 339.508 241.96C338.015 240.747 337.268 238.973 337.268 236.64C337.268 235.053 337.501 233.327 337.968 231.46C338.435 228.38 338.668 226.28 338.668 225.16C338.668 221.8 337.408 219.093 334.888 217.04C332.368 214.893 328.168 213.82 322.288 213.82C314.355 213.82 308.008 215.5 303.248 218.86C298.488 222.22 296.108 226.747 296.108 232.44C296.108 236.827 297.881 240.467 301.428 243.36C305.068 246.16 310.948 247.7 319.068 247.98C321.121 248.073 322.568 248.54 323.408 249.38C324.248 250.22 324.668 251.62 324.668 253.58C324.668 259.74 321.868 262.867 316.268 262.96C308.521 263.147 302.081 264.22 296.948 266.18C291.908 268.14 288.221 270.66 285.888 273.74C283.648 276.727 282.528 279.947 282.528 283.4C282.528 289.187 285.235 293.573 290.648 296.56C296.061 299.453 304.648 300.9 316.408 300.9C324.155 300.9 332.321 300.013 340.908 298.24C349.588 296.373 357.008 294.133 363.168 291.52ZM419.665 317.7C408.558 317.7 398.898 315.693 390.685 311.68C382.471 307.573 376.171 301.787 371.785 294.32C367.398 286.853 365.205 278.173 365.205 268.28C365.205 254.56 367.771 242.38 372.905 231.74C378.131 221.1 385.178 212.887 394.045 207.1C402.911 201.22 412.758 198.28 423.585 198.28C433.665 198.28 441.318 200.893 446.545 206.12C451.771 211.253 454.385 218.067 454.385 226.56C454.385 232.253 453.358 236.827 451.305 240.28C449.345 243.733 446.498 245.46 442.765 245.46C440.151 245.46 438.098 244.853 436.605 243.64C435.111 242.427 434.365 240.653 434.365 238.32C434.365 237.48 434.551 235.94 434.925 233.7C435.485 230.9 435.765 228.66 435.765 226.98C435.765 218.487 431.238 214.24 422.185 214.24C416.025 214.24 410.145 216.247 404.545 220.26C398.945 224.273 394.418 230.2 390.965 238.04C387.511 245.787 385.785 255.027 385.785 265.76C385.785 276.96 388.911 285.64 395.165 291.8C401.418 297.867 410.658 300.9 422.885 300.9C428.951 300.9 435.065 300.153 441.225 298.66C447.478 297.073 454.385 294.693 461.945 291.52C463.345 290.96 464.511 290.68 465.445 290.68C466.938 290.68 468.058 291.24 468.805 292.36C469.551 293.48 469.925 294.927 469.925 296.7C469.925 302.393 466.845 306.593 460.685 309.3C454.058 312.193 447.151 314.34 439.965 315.74C432.871 317.047 426.105 317.7 419.665 317.7Z" fill="white"/>
</g>
<g filter="url(#filter2_d_5_48)">
<path d="M492.481 296.161L494.09 294.973L493.491 294.161H492.481V296.161ZM503.55 311.15L501.941 312.338L503.808 314.867L505.308 312.104L503.55 311.15ZM522.628 276L524.345 274.974L522.544 271.962L520.87 275.046L522.628 276ZM556.707 333L554.99 334.026L556.874 337.177L558.5 333.886L556.707 333ZM574.911 296.161V294.161H573.669L573.118 295.275L574.911 296.161ZM617 296.161L597 284.614V307.708L617 296.161ZM465 298.161H492.481V294.161H465V298.161ZM490.873 297.349L501.941 312.338L505.159 309.962L494.09 294.973L490.873 297.349ZM505.308 312.104L524.386 276.954L520.87 275.046L501.792 310.196L505.308 312.104ZM520.911 277.026L554.99 334.026L558.423 331.974L524.345 274.974L520.911 277.026ZM558.5 333.886L576.704 297.047L573.118 295.275L554.914 332.114L558.5 333.886ZM574.911 298.161H599V294.161H574.911V298.161Z" fill="white"/>
</g>
<path d="M27.45 368.75V377.5H39.2V383.05H27.45V392.3H40.7V398H20.45V363.05H40.7V368.75H27.45ZM62.3613 398L56.6613 389.4L51.6113 398H44.1113L53.1613 384.1L44.0113 370.3H51.9113L57.5613 378.85L62.6613 370.3H70.1613L61.0613 384.1L70.2613 398H62.3613ZM99.8133 383.55C99.8133 384.55 99.7466 385.45 99.6133 386.25H79.3633C79.5299 388.25 80.2299 389.817 81.4633 390.95C82.6966 392.083 84.2133 392.65 86.0133 392.65C88.6133 392.65 90.4633 391.533 91.5633 389.3H99.1133C98.3133 391.967 96.7799 394.167 94.5133 395.9C92.2466 397.6 89.4633 398.45 86.1633 398.45C83.4966 398.45 81.0966 397.867 78.9633 396.7C76.8633 395.5 75.2133 393.817 74.0133 391.65C72.8466 389.483 72.2633 386.983 72.2633 384.15C72.2633 381.283 72.8466 378.767 74.0133 376.6C75.1799 374.433 76.8133 372.767 78.9133 371.6C81.0133 370.433 83.4299 369.85 86.1633 369.85C88.7966 369.85 91.1466 370.417 93.2133 371.55C95.3133 372.683 96.9299 374.3 98.0633 376.4C99.23 378.467 99.8133 380.85 99.8133 383.55ZM92.5633 381.55C92.5299 379.75 91.8799 378.317 90.6133 377.25C89.3466 376.15 87.7966 375.6 85.9633 375.6C84.2299 375.6 82.7633 376.133 81.5633 377.2C80.3966 378.233 79.6799 379.683 79.4133 381.55H92.5633ZM103.123 384.15C103.123 381.283 103.706 378.783 104.873 376.65C106.039 374.483 107.656 372.817 109.723 371.65C111.789 370.45 114.156 369.85 116.823 369.85C120.256 369.85 123.089 370.717 125.323 372.45C127.589 374.15 129.106 376.55 129.873 379.65H122.323C121.923 378.45 121.239 377.517 120.273 376.85C119.339 376.15 118.173 375.8 116.773 375.8C114.773 375.8 113.189 376.533 112.023 378C110.856 379.433 110.273 381.483 110.273 384.15C110.273 386.783 110.856 388.833 112.023 390.3C113.189 391.733 114.773 392.45 116.773 392.45C119.606 392.45 121.456 391.183 122.323 388.65H129.873C129.106 391.65 127.589 394.033 125.323 395.8C123.056 397.567 120.223 398.45 116.823 398.45C114.156 398.45 111.789 397.867 109.723 396.7C107.656 395.5 106.039 393.833 104.873 391.7C103.706 389.533 103.123 387.017 103.123 384.15ZM158.965 398.35C156.532 398.35 154.332 397.933 152.365 397.1C150.432 396.267 148.898 395.067 147.765 393.5C146.632 391.933 146.048 390.083 146.015 387.95H153.515C153.615 389.383 154.115 390.517 155.015 391.35C155.948 392.183 157.215 392.6 158.815 392.6C160.448 392.6 161.732 392.217 162.665 391.45C163.598 390.65 164.065 389.617 164.065 388.35C164.065 387.317 163.748 386.467 163.115 385.8C162.482 385.133 161.682 384.617 160.715 384.25C159.782 383.85 158.482 383.417 156.815 382.95C154.548 382.283 152.698 381.633 151.265 381C149.865 380.333 148.648 379.35 147.615 378.05C146.615 376.717 146.115 374.95 146.115 372.75C146.115 370.683 146.632 368.883 147.665 367.35C148.698 365.817 150.148 364.65 152.015 363.85C153.882 363.017 156.015 362.6 158.415 362.6C162.015 362.6 164.932 363.483 167.165 365.25C169.432 366.983 170.682 369.417 170.915 372.55H163.215C163.148 371.35 162.632 370.367 161.665 369.6C160.732 368.8 159.482 368.4 157.915 368.4C156.548 368.4 155.448 368.75 154.615 369.45C153.815 370.15 153.415 371.167 153.415 372.5C153.415 373.433 153.715 374.217 154.315 374.85C154.948 375.45 155.715 375.95 156.615 376.35C157.548 376.717 158.848 377.15 160.515 377.65C162.782 378.317 164.632 378.983 166.065 379.65C167.498 380.317 168.732 381.317 169.765 382.65C170.798 383.983 171.315 385.733 171.315 387.9C171.315 389.767 170.832 391.5 169.865 393.1C168.898 394.7 167.482 395.983 165.615 396.95C163.748 397.883 161.532 398.35 158.965 398.35ZM189.684 398.45C187.017 398.45 184.617 397.867 182.484 396.7C180.35 395.5 178.667 393.817 177.434 391.65C176.234 389.483 175.634 386.983 175.634 384.15C175.634 381.317 176.25 378.817 177.484 376.65C178.75 374.483 180.467 372.817 182.634 371.65C184.8 370.45 187.217 369.85 189.884 369.85C192.55 369.85 194.967 370.45 197.134 371.65C199.3 372.817 201 374.483 202.234 376.65C203.5 378.817 204.134 381.317 204.134 384.15C204.134 386.983 203.484 389.483 202.184 391.65C200.917 393.817 199.184 395.5 196.984 396.7C194.817 397.867 192.384 398.45 189.684 398.45ZM189.684 392.35C190.95 392.35 192.134 392.05 193.234 391.45C194.367 390.817 195.267 389.883 195.934 388.65C196.6 387.417 196.934 385.917 196.934 384.15C196.934 381.517 196.234 379.5 194.834 378.1C193.467 376.667 191.784 375.95 189.784 375.95C187.784 375.95 186.1 376.667 184.734 378.1C183.4 379.5 182.734 381.517 182.734 384.15C182.734 386.783 183.384 388.817 184.684 390.25C186.017 391.65 187.684 392.35 189.684 392.35ZM221.968 376.05H217.118V398H210.018V376.05H206.868V370.3H210.018V368.9C210.018 365.5 210.985 363 212.918 361.4C214.852 359.8 217.768 359.05 221.668 359.15V365.05C219.968 365.017 218.785 365.3 218.118 365.9C217.452 366.5 217.118 367.583 217.118 369.15V370.3H221.968V376.05ZM234.655 376.05V389.45C234.655 390.383 234.871 391.067 235.305 391.5C235.771 391.9 236.538 392.1 237.605 392.1H240.855V398H236.455C230.555 398 227.605 395.133 227.605 389.4V376.05H224.305V370.3H227.605V363.45H234.655V370.3H240.855V376.05H234.655ZM284.289 370.3L276.189 398H268.639L263.589 378.65L258.539 398H250.939L242.789 370.3H249.889L254.789 391.4L260.089 370.3H267.489L272.689 391.35L277.589 370.3H284.289ZM286.277 384.05C286.277 381.25 286.827 378.767 287.927 376.6C289.06 374.433 290.577 372.767 292.477 371.6C294.41 370.433 296.56 369.85 298.927 369.85C300.994 369.85 302.794 370.267 304.327 371.1C305.894 371.933 307.144 372.983 308.077 374.25V370.3H315.127V398H308.077V393.95C307.177 395.25 305.927 396.333 304.327 397.2C302.76 398.033 300.944 398.45 298.877 398.45C296.544 398.45 294.41 397.85 292.477 396.65C290.577 395.45 289.06 393.767 287.927 391.6C286.827 389.4 286.277 386.883 286.277 384.05ZM308.077 384.15C308.077 382.45 307.744 381 307.077 379.8C306.41 378.567 305.51 377.633 304.377 377C303.244 376.333 302.027 376 300.727 376C299.427 376 298.227 376.317 297.127 376.95C296.027 377.583 295.127 378.517 294.427 379.75C293.76 380.95 293.427 382.383 293.427 384.05C293.427 385.717 293.76 387.183 294.427 388.45C295.127 389.683 296.027 390.633 297.127 391.3C298.26 391.967 299.46 392.3 300.727 392.3C302.027 392.3 303.244 391.983 304.377 391.35C305.51 390.683 306.41 389.75 307.077 388.55C307.744 387.317 308.077 385.85 308.077 384.15ZM328.964 374.6C329.864 373.133 331.03 371.983 332.464 371.15C333.93 370.317 335.597 369.9 337.464 369.9V377.25H335.614C333.414 377.25 331.747 377.767 330.614 378.8C329.514 379.833 328.964 381.633 328.964 384.2V398H321.964V370.3H328.964V374.6ZM367.929 383.55C367.929 384.55 367.862 385.45 367.729 386.25H347.479C347.645 388.25 348.345 389.817 349.579 390.95C350.812 392.083 352.329 392.65 354.129 392.65C356.729 392.65 358.579 391.533 359.679 389.3H367.229C366.429 391.967 364.895 394.167 362.629 395.9C360.362 397.6 357.579 398.45 354.279 398.45C351.612 398.45 349.212 397.867 347.079 396.7C344.979 395.5 343.329 393.817 342.129 391.65C340.962 389.483 340.379 386.983 340.379 384.15C340.379 381.283 340.962 378.767 342.129 376.6C343.295 374.433 344.929 372.767 347.029 371.6C349.129 370.433 351.545 369.85 354.279 369.85C356.912 369.85 359.262 370.417 361.329 371.55C363.429 372.683 365.045 374.3 366.179 376.4C367.345 378.467 367.929 380.85 367.929 383.55ZM360.679 381.55C360.645 379.75 359.995 378.317 358.729 377.25C357.462 376.15 355.912 375.6 354.079 375.6C352.345 375.6 350.879 376.133 349.679 377.2C348.512 378.233 347.795 379.683 347.529 381.55H360.679ZM397.002 398.35C394.569 398.35 392.369 397.933 390.402 397.1C388.469 396.267 386.935 395.067 385.802 393.5C384.669 391.933 384.085 390.083 384.052 387.95H391.552C391.652 389.383 392.152 390.517 393.052 391.35C393.985 392.183 395.252 392.6 396.852 392.6C398.485 392.6 399.769 392.217 400.702 391.45C401.635 390.65 402.102 389.617 402.102 388.35C402.102 387.317 401.785 386.467 401.152 385.8C400.519 385.133 399.719 384.617 398.752 384.25C397.819 383.85 396.519 383.417 394.852 382.95C392.585 382.283 390.735 381.633 389.302 381C387.902 380.333 386.685 379.35 385.652 378.05C384.652 376.717 384.152 374.95 384.152 372.75C384.152 370.683 384.669 368.883 385.702 367.35C386.735 365.817 388.185 364.65 390.052 363.85C391.919 363.017 394.052 362.6 396.452 362.6C400.052 362.6 402.969 363.483 405.202 365.25C407.469 366.983 408.719 369.417 408.952 372.55H401.252C401.185 371.35 400.669 370.367 399.702 369.6C398.769 368.8 397.519 368.4 395.952 368.4C394.585 368.4 393.485 368.75 392.652 369.45C391.852 370.15 391.452 371.167 391.452 372.5C391.452 373.433 391.752 374.217 392.352 374.85C392.985 375.45 393.752 375.95 394.652 376.35C395.585 376.717 396.885 377.15 398.552 377.65C400.819 378.317 402.669 378.983 404.102 379.65C405.535 380.317 406.769 381.317 407.802 382.65C408.835 383.983 409.352 385.733 409.352 387.9C409.352 389.767 408.869 391.5 407.902 393.1C406.935 394.7 405.519 395.983 403.652 396.95C401.785 397.883 399.569 398.35 397.002 398.35ZM427.721 398.45C425.054 398.45 422.654 397.867 420.521 396.7C418.387 395.5 416.704 393.817 415.471 391.65C414.271 389.483 413.671 386.983 413.671 384.15C413.671 381.317 414.287 378.817 415.521 376.65C416.787 374.483 418.504 372.817 420.671 371.65C422.837 370.45 425.254 369.85 427.921 369.85C430.587 369.85 433.004 370.45 435.171 371.65C437.337 372.817 439.037 374.483 440.271 376.65C441.537 378.817 442.171 381.317 442.171 384.15C442.171 386.983 441.521 389.483 440.221 391.65C438.954 393.817 437.221 395.5 435.021 396.7C432.854 397.867 430.421 398.45 427.721 398.45ZM427.721 392.35C428.987 392.35 430.171 392.05 431.271 391.45C432.404 390.817 433.304 389.883 433.971 388.65C434.637 387.417 434.971 385.917 434.971 384.15C434.971 381.517 434.271 379.5 432.871 378.1C431.504 376.667 429.821 375.95 427.821 375.95C425.821 375.95 424.137 376.667 422.771 378.1C421.437 379.5 420.771 381.517 420.771 384.15C420.771 386.783 421.421 388.817 422.721 390.25C424.054 391.65 425.721 392.35 427.721 392.35ZM454.305 361V398H447.305V361H454.305ZM487.371 370.3V398H480.321V394.5C479.421 395.7 478.238 396.65 476.771 397.35C475.338 398.017 473.771 398.35 472.071 398.35C469.905 398.35 467.988 397.9 466.321 397C464.655 396.067 463.338 394.717 462.371 392.95C461.438 391.15 460.971 389.017 460.971 386.55V370.3H467.971V385.55C467.971 387.75 468.521 389.45 469.621 390.65C470.721 391.817 472.221 392.4 474.121 392.4C476.055 392.4 477.571 391.817 478.671 390.65C479.771 389.45 480.321 387.75 480.321 385.55V370.3H487.371ZM502.428 376.05V389.45C502.428 390.383 502.645 391.067 503.078 391.5C503.545 391.9 504.311 392.1 505.378 392.1H508.628V398H504.228C498.328 398 495.378 395.133 495.378 389.4V376.05H492.078V370.3H495.378V363.45H502.428V370.3H508.628V376.05H502.428ZM517.213 367C515.98 367 514.946 366.617 514.113 365.85C513.313 365.05 512.913 364.067 512.913 362.9C512.913 361.733 513.313 360.767 514.113 360C514.946 359.2 515.98 358.8 517.213 358.8C518.446 358.8 519.463 359.2 520.263 360C521.096 360.767 521.513 361.733 521.513 362.9C521.513 364.067 521.096 365.05 520.263 365.85C519.463 366.617 518.446 367 517.213 367ZM520.663 370.3V398H513.663V370.3H520.663ZM539.879 398.45C537.212 398.45 534.812 397.867 532.679 396.7C530.546 395.5 528.862 393.817 527.629 391.65C526.429 389.483 525.829 386.983 525.829 384.15C525.829 381.317 526.446 378.817 527.679 376.65C528.946 374.483 530.662 372.817 532.829 371.65C534.996 370.45 537.412 369.85 540.079 369.85C542.746 369.85 545.162 370.45 547.329 371.65C549.496 372.817 551.196 374.483 552.429 376.65C553.696 378.817 554.329 381.317 554.329 384.15C554.329 386.983 553.679 389.483 552.379 391.65C551.112 393.817 549.379 395.5 547.179 396.7C545.012 397.867 542.579 398.45 539.879 398.45ZM539.879 392.35C541.146 392.35 542.329 392.05 543.429 391.45C544.562 390.817 545.462 389.883 546.129 388.65C546.796 387.417 547.129 385.917 547.129 384.15C547.129 381.517 546.429 379.5 545.029 378.1C543.662 376.667 541.979 375.95 539.979 375.95C537.979 375.95 536.296 376.667 534.929 378.1C533.596 379.5 532.929 381.517 532.929 384.15C532.929 386.783 533.579 388.817 534.879 390.25C536.212 391.65 537.879 392.35 539.879 392.35ZM574.814 369.9C578.114 369.9 580.78 370.95 582.814 373.05C584.847 375.117 585.864 378.017 585.864 381.75V398H578.864V382.7C578.864 380.5 578.314 378.817 577.214 377.65C576.114 376.45 574.614 375.85 572.714 375.85C570.78 375.85 569.247 376.45 568.114 377.65C567.014 378.817 566.464 380.5 566.464 382.7V398H559.464V370.3H566.464V373.75C567.397 372.55 568.58 371.617 570.014 370.95C571.48 370.25 573.08 369.9 574.814 369.9ZM603.12 398.45C600.854 398.45 598.82 398.05 597.02 397.25C595.22 396.417 593.787 395.3 592.72 393.9C591.687 392.5 591.12 390.95 591.02 389.25H598.07C598.204 390.317 598.72 391.2 599.62 391.9C600.554 392.6 601.704 392.95 603.07 392.95C604.404 392.95 605.437 392.683 606.17 392.15C606.937 391.617 607.32 390.933 607.32 390.1C607.32 389.2 606.854 388.533 605.92 388.1C605.02 387.633 603.57 387.133 601.57 386.6C599.504 386.1 597.804 385.583 596.47 385.05C595.17 384.517 594.037 383.7 593.07 382.6C592.137 381.5 591.67 380.017 591.67 378.15C591.67 376.617 592.104 375.217 592.97 373.95C593.87 372.683 595.137 371.683 596.77 370.95C598.437 370.217 600.387 369.85 602.62 369.85C605.92 369.85 608.554 370.683 610.52 372.35C612.487 373.983 613.57 376.2 613.77 379H607.07C606.97 377.9 606.504 377.033 605.67 376.4C604.87 375.733 603.787 375.4 602.42 375.4C601.154 375.4 600.17 375.633 599.47 376.1C598.804 376.567 598.47 377.217 598.47 378.05C598.47 378.983 598.937 379.7 599.87 380.2C600.804 380.667 602.254 381.15 604.22 381.65C606.22 382.15 607.87 382.667 609.17 383.2C610.47 383.733 611.587 384.567 612.52 385.7C613.487 386.8 613.987 388.267 614.02 390.1C614.02 391.7 613.57 393.133 612.67 394.4C611.804 395.667 610.537 396.667 608.87 397.4C607.237 398.1 605.32 398.45 603.12 398.45Z" fill="white"/>
<defs>
<filter id="filter0_d_5_48" x="19.872" y="115.688" width="128.64" height="221.312" filterUnits="userSpaceOnUse" color-interpolation-filters="sRGB">
<feFlood flood-opacity="0" result="BackgroundImageFix"/>
<feColorMatrix in="SourceAlpha" type="matrix" values="0 0 0 0 0 0 0 0 0 0 0 0 0 0 0 0 0 0 127 0" result="hardAlpha"/>
<feOffset dx="8" dy="16"/>
<feGaussianBlur stdDeviation="2"/>
<feComposite in2="hardAlpha" operator="out"/>
<feColorMatrix type="matrix" values="0 0 0 0 0 0 0 0 0 0 0 0 0 0 0 0 0 0 0.25 0"/>
<feBlend mode="normal" in2="BackgroundImageFix" result="effect1_dropShadow_5_48"/>
<feBlend mode="normal" in="SourceGraphic" in2="effect1_dropShadow_5_48" result="shape"/>
</filter>
<filter id="filter1_d_5_48" x="152.9" y="198.28" width="329.025" height="139.42" filterUnits="userSpaceOnUse" color-interpolation-filters="sRGB">
<feFlood flood-opacity="0" result="BackgroundImageFix"/>
<feColorMatrix in="SourceAlpha" type="matrix" values="0 0 0 0 0 0 0 0 0 0 0 0 0 0 0 0 0 0 127 0" result="hardAlpha"/>
<feOffset dx="8" dy="16"/>
<feGaussianBlur stdDeviation="2"/>
<feComposite in2="hardAlpha" operator="out"/>
<feColorMatrix type="matrix" values="0 0 0 0 0 0 0 0 0 0 0 0 0 0 0 0 0 0 0.25 0"/>
<feBlend mode="normal" in2="BackgroundImageFix" result="effect1_dropShadow_5_48"/>
<feBlend mode="normal" in="SourceGraphic" in2="effect1_dropShadow_5_48" result="shape"/>
</filter>
<filter id="filter2_d_5_48" x="465" y="271.962" width="164" height="85.2146" filterUnits="userSpaceOnUse" color-interpolation-filters="sRGB">
<feFlood flood-opacity="0" result="BackgroundImageFix"/>
<feColorMatrix in="SourceAlpha" type="matrix" values="0 0 0 0 0 0 0 0 0 0 0 0 0 0 0 0 0 0 127 0" result="hardAlpha"/>
<feOffset dx="8" dy="16"/>
<feGaussianBlur stdDeviation="2"/>
<feComposite in2="hardAlpha" operator="out"/>
<feColorMatrix type="matrix" values="0 0 0 0 0 0 0 0 0 0 0 0 0 0 0 0 0 0 0.25 0"/>
<feBlend mode="normal" in2="BackgroundImageFix" result="effect1_dropShadow_5_48"/>
<feBlend mode="normal" in="SourceGraphic" in2="effect1_dropShadow_5_48" result="shape"/>
</filter>
</defs>
</svg>
